<?xml version="1.0" standalone="no"?>
<!DOCTYPE svg PUBLIC "-//W3C//DTD SVG 20010904//EN"
 "http://www.w3.org/TR/2001/REC-SVG-20010904/DTD/svg10.dtd">
<svg version="1.0" xmlns="http://www.w3.org/2000/svg"
 width="869.000000pt" height="675.000000pt" viewBox="0 0 869.000000 675.000000"
 preserveAspectRatio="xMidYMid meet">

<g transform="translate(0.000000,675.000000) scale(0.100000,-0.100000)"
fill="#000000" stroke="none">
<path d="M0 3375 l0 -3375 4345 0 4345 0 0 3375 0 3375 -4345 0 -4345 0 0
-3375z m6800 1655 l0 -380 915 0 c746 0 915 -2 915 -13 0 -7 -77 -429 -170
-938 -94 -508 -215 -1169 -270 -1469 -55 -300 -103 -555 -105 -567 l-5 -23
-640 0 -640 0 0 -143 0 -142 -1305 -653 -1305 -652 -1305 652 -1305 653 0 142
0 143 -780 0 c-429 0 -780 3 -780 7 0 6 332 1813 501 2725 27 147 49 270 49
273 0 3 227 5 505 5 l505 0 2 382 3 381 1302 651 1303 651 1305 -652 1305
-653 0 -380z"/>
<path d="M2948 5949 l-1238 -619 0 -340 0 -340 50 0 50 0 0 330 0 330 1190
595 1190 595 1190 -595 1190 -595 0 -330 0 -330 50 0 50 0 0 340 0 340 -1240
620 c-682 341 -1241 620 -1242 619 -2 0 -560 -279 -1240 -620z"/>
<path d="M3018 5881 l-1176 -586 -1 -322 -1 -323 35 0 35 0 0 244 0 244 348
185 c191 101 577 307 857 457 281 149 627 334 771 411 143 76 263 139 267 139
4 0 7 -378 7 -840 l0 -840 1190 0 1190 0 0 323 -1 322 -1173 586 -1173 586
-1175 -586z m2132 -717 c6 -322 10 -346 72 -384 39 -25 98 -22 130 7 47 41 52
72 56 351 4 238 6 262 21 262 10 0 25 -6 35 -13 16 -12 17 -32 13 -273 -4
-281 -9 -307 -60 -370 -37 -45 -81 -64 -144 -64 -90 0 -158 61 -182 163 -11
50 -16 608 -5 619 3 3 17 3 32 -1 l27 -7 5 -290z m997 72 c67 -35 103 -96 103
-174 0 -103 -65 -158 -182 -156 l-67 1 -3 -111 -3 -111 -30 0 -30 0 -3 294
c-2 210 1 297 9 302 14 8 168 -25 206 -45z"/>
<path d="M6000 5090 l0 -120 59 0 c83 0 114 26 115 96 1 82 -37 120 -136 138
l-38 7 0 -121z"/>
<path d="M4036 5568 c-22 -20 -34 -60 -87 -278 -93 -388 -106 -436 -112 -420
-3 8 -40 148 -81 310 -52 203 -81 299 -93 308 -20 14 -70 7 -91 -12 -11 -11
-16 -331 -12 -768 0 -13 8 -18 30 -18 l30 0 0 352 c0 193 3 348 7 345 4 -4 46
-161 93 -350 l87 -342 30 -3 31 -3 55 228 c30 125 72 304 93 397 l39 169 3
-397 2 -397 33 3 32 3 3 425 c1 234 0 435 -3 448 -4 16 -13 22 -35 22 -16 0
-40 -10 -54 -22z"/>
<path d="M3065 5382 c-11 -2 -23 -9 -27 -16 -4 -6 -8 -121 -8 -256 0 -219 -2
-249 -19 -287 -44 -96 -171 -98 -218 -3 -15 29 -19 72 -23 265 l-5 230 -24 -3
c-14 -1 -27 -5 -30 -8 -3 -3 -6 -110 -6 -237 1 -214 2 -236 22 -278 31 -68 81
-102 157 -107 87 -5 141 24 181 98 l30 55 3 269 c2 148 0 272 -5 276 -4 3 -17
5 -28 2z"/>
<path d="M2108 5186 c-83 -30 -128 -82 -128 -148 0 -52 31 -83 124 -121 99
-40 124 -68 106 -121 -20 -62 -91 -81 -180 -47 -30 12 -56 21 -57 21 -2 0 -3
-13 -3 -29 0 -24 6 -31 40 -45 49 -20 139 -21 183 -2 65 27 109 108 93 170
-11 43 -49 76 -126 107 -41 16 -83 37 -92 46 -29 26 -23 67 14 98 31 26 37 27
105 22 72 -5 73 -5 73 18 0 44 -74 59 -152 31z"/>
<path d="M680 4514 c0 -3 -21 -117 -46 -253 -236 -1278 -454 -2467 -454 -2478
0 -11 659 -13 3894 -13 l3894 0 5 23 c3 12 116 623 251 1357 135 734 248 1343
250 1353 4 16 -187 17 -3895 17 -2144 0 -3899 -3 -3899 -6z m7700 -63 c0 -5
-106 -583 -235 -1285 -129 -701 -235 -1280 -235 -1286 0 -7 -1181 -10 -3836
-10 l-3836 0 6 28 c3 15 58 311 121 657 64 347 145 785 180 975 35 190 87 471
115 625 28 154 53 286 55 293 4 9 779 12 3835 12 2342 0 3830 -4 3830 -9z"/>
<path d="M731 4378 c-6 -29 -85 -458 -177 -953 -91 -495 -191 -1041 -223
-1213 l-58 -312 3806 2 3805 3 87 475 c48 261 151 819 228 1240 78 421 143
775 146 788 l5 22 -3804 0 -3805 0 -10 -52z m3310 -482 c41 -14 83 -26 93 -26
9 0 30 14 45 31 16 17 35 29 43 27 22 -5 -69 -380 -91 -376 -13 3 -15 15 -13
65 6 102 -49 188 -147 231 -58 26 -230 22 -304 -7 -214 -84 -373 -311 -408
-581 -28 -220 52 -418 194 -481 69 -31 205 -33 287 -5 30 10 56 20 58 21 1 1
25 81 52 176 47 165 59 239 42 266 -12 19 -59 33 -108 33 -38 0 -45 3 -42 18
3 16 24 17 251 20 233 2 248 1 245 -15 -2 -13 -17 -20 -52 -25 -91 -13 -103
-35 -190 -338 -25 -86 -52 -159 -61 -166 -8 -6 -58 -26 -109 -43 -215 -71
-451 -41 -594 76 -101 82 -164 228 -164 378 0 355 266 667 633 745 24 5 94 8
154 6 87 -3 126 -9 186 -30z m2785 2 c-3 -18 -27 -268 -52 -555 -45 -497 -46
-523 -30 -548 19 -29 43 -41 99 -50 23 -4 37 -11 37 -20 0 -13 -36 -15 -235
-15 -199 0 -235 2 -235 15 0 9 14 16 38 20 112 19 122 39 147 293 l6 62 -173
-1 -173 0 -45 -62 c-105 -146 -130 -189 -130 -221 0 -37 23 -62 60 -68 14 -2
26 -11 28 -20 3 -17 -11 -18 -178 -18 -178 0 -181 0 -170 20 6 11 20 20 31 20
71 0 131 70 569 668 373 510 419 564 406 480z m-3832 -12 c-3 -7 -23 -16 -45
-19 -71 -9 -103 -45 -138 -149 -40 -123 -238 -813 -246 -860 -14 -76 14 -108
95 -108 33 0 40 -3 40 -20 0 -19 -7 -20 -250 -20 -137 0 -250 2 -250 4 0 17
38 36 69 36 58 0 100 34 128 104 42 102 263 887 263 931 0 53 -23 76 -85 82
-29 4 -45 10 -45 19 0 12 43 14 235 14 195 0 233 -2 229 -14z m1900 -18 c3
-18 28 -230 56 -472 27 -241 51 -440 53 -442 2 -2 67 85 144 194 78 108 231
321 340 472 l199 275 147 3 c123 2 147 0 147 -12 0 -10 -17 -17 -56 -22 -72
-9 -105 -37 -133 -111 -44 -123 -253 -851 -258 -904 -5 -51 -3 -57 20 -76 15
-11 49 -23 76 -27 39 -5 49 -10 45 -21 -9 -22 -504 -22 -504 -1 0 9 17 16 53
21 76 11 102 28 131 87 22 47 249 818 242 825 -3 3 -158 -211 -480 -664 -192
-269 -228 -310 -241 -270 -2 6 -27 215 -55 462 -28 248 -52 457 -53 465 -7 33
-237 -773 -237 -828 0 -48 14 -61 77 -70 34 -5 49 -12 51 -25 3 -16 -12 -17
-198 -17 -157 0 -201 3 -198 13 3 6 29 17 59 23 72 14 95 30 120 82 12 24 83
254 158 512 l138 470 -21 19 c-12 11 -45 25 -74 31 -33 8 -52 17 -52 26 0 11
27 14 150 14 l149 0 5 -32z"/>
<path d="M6484 3405 c-88 -118 -160 -220 -162 -225 -2 -6 50 -10 142 -10 136
0 146 1 146 19 0 10 9 110 20 221 11 112 19 205 16 207 -2 2 -75 -93 -162
-212z"/>
<path d="M1711 1538 l0 -103 1242 -619 1241 -618 1238 618 1238 619 0 103 0
102 -50 0 c-45 0 -50 -2 -51 -22 0 -20 -46 -46 -327 -185 -180 -90 -338 -169
-352 -176 -14 -8 -402 -202 -863 -431 l-838 -417 -1187 594 c-977 489 -1188
598 -1190 616 -3 18 -10 21 -53 21 l-49 0 1 -102z"/>
<path d="M1840 1627 c0 -6 431 -227 958 -490 526 -264 953 -474 947 -469 -5 5
-219 121 -475 257 -256 136 -529 282 -607 324 l-143 76 0 55 c0 30 7 82 15
115 8 33 14 68 15 78 0 31 -19 8 -26 -31 -11 -63 -21 -68 -28 -13 -4 33 -11
51 -20 51 -12 0 -12 -9 0 -57 17 -66 30 -183 21 -183 -4 0 -133 68 -288 150
-239 128 -288 150 -325 150 -29 0 -44 -4 -44 -13z"/>
<path d="M4160 1046 c0 -525 2 -595 15 -600 9 -3 351 162 835 404 l820 410 1
33 c7 226 8 227 50 227 l30 0 -6 -47 c-10 -72 -15 -83 -36 -83 -28 0 -23 -19
6 -26 18 -4 28 -15 32 -35 l5 -28 314 157 c173 86 314 163 314 169 0 10 -241
13 -1190 13 l-1190 0 0 -594z m1110 523 c0 -10 -7 -19 -15 -19 -15 0 -21 31
-9 43 11 10 24 -3 24 -24z m-932 -8 c3 -19 0 -22 -12 -18 -29 11 -30 -22 -2
-63 30 -46 35 -113 10 -148 -22 -32 -45 -26 -58 16 -7 20 -5 22 17 17 37 -10
43 20 12 66 -27 41 -33 104 -14 140 14 26 43 20 47 -10z m320 -53 c8 -8 12
-45 12 -101 0 -74 -2 -88 -15 -84 -8 4 -17 2 -21 -4 -13 -21 -34 14 -34 57 0
38 4 46 25 56 31 14 29 44 -3 41 -16 -2 -22 3 -22 16 0 29 37 40 58 19z m288
-59 l11 -64 8 68 c7 61 16 80 28 60 4 -7 -3 -68 -18 -160 -7 -40 -31 -43 -39
-5 -7 34 -26 154 -26 165 0 5 6 7 13 5 6 -3 17 -33 23 -69z m322 -32 c2 -82 0
-97 -13 -97 -12 0 -15 17 -15 101 0 76 3 100 13 97 8 -3 13 -35 15 -101z m272
91 c0 -9 3 -9 9 1 5 8 16 11 25 8 13 -5 16 -24 16 -102 0 -57 -4 -95 -10 -95
-6 0 -10 32 -10 76 0 56 -3 75 -12 72 -9 -3 -14 -30 -16 -76 -4 -109 -22 -87
-22 28 0 60 4 100 10 100 6 0 10 -6 10 -12z"/>
<path d="M4620 1381 c0 -26 16 -35 24 -15 10 25 7 34 -9 34 -8 0 -15 -9 -15
-19z"/>
<path d="M2809 1504 c-17 -21 -24 -121 -10 -156 7 -18 18 -28 31 -28 13 0 24
10 31 28 15 38 7 151 -12 163 -19 12 -25 11 -40 -7z m36 -85 c0 -41 -4 -54
-15 -54 -17 0 -25 52 -15 92 11 44 30 20 30 -38z"/>
<path d="M3118 1514 c-10 -9 -10 -110 -2 -154 8 -35 31 -51 45 -29 6 10 9 10
9 2 0 -7 5 -13 10 -13 6 0 10 38 10 94 0 53 -4 98 -10 101 -6 4 -10 -19 -10
-62 0 -123 -32 -128 -40 -6 -3 41 -8 71 -12 67z"/>
<path d="M3440 1505 c-2 -19 -3 -145 -1 -174 1 -8 4 -12 7 -8 3 3 7 36 9 74 2
38 8 69 14 71 6 2 11 16 11 30 -1 25 -2 26 -14 9 -14 -18 -14 -18 -19 0 -4 16
-5 16 -7 -2z"/>
<path d="M5860 1455 c0 -14 5 -25 10 -25 6 0 10 11 10 25 0 14 -4 25 -10 25
-5 0 -10 -11 -10 -25z"/>
<path d="M5853 1314 c-8 -22 15 -44 26 -25 10 16 4 41 -10 41 -5 0 -12 -7 -16
-16z"/>
</g>
</svg>
